HIERARCHY
ROOT Hips
{
	OFFSET 0.00000 0.00000 0.00000
	CHANNELS 6 Xposition Yposition Zposition Zrotation Yrotation Xrotation 
	JOINT LHipJoint
	{
		OFFSET 0 0 0
		CHANNELS 3 Zrotation Yrotation Xrotation
		JOINT LeftHip
		{
			OFFSET 1.28858 -1.83292 1.03970
			CHANNELS 3 Zrotation Yrotation Xrotation
			JOINT LeftKnee
			{
				OFFSET 2.47846 -6.80952 0.00000
				CHANNELS 3 Zrotation Yrotation Xrotation
				JOINT LeftAnkle
				{
					OFFSET 2.75274 -7.56311 0.00000
					CHANNELS 3 Zrotation Yrotation Xrotation
					JOINT LeftToe
					{
						OFFSET 0.12848 -0.35301 1.68223
						CHANNELS 3 Zrotation Yrotation Xrotation
						End Site
						{
							OFFSET 0.00000 -0.00000 0.87311
						}
					}
				}
			}
		}
	}
	JOINT RHipJoint
	{
		OFFSET 0 0 0
		CHANNELS 3 Zrotation Yrotation Xrotation
		JOINT RightHip
		{
			OFFSET -1.31183 -1.83292 1.03970
			CHANNELS 3 Zrotation Yrotation Xrotation
			JOINT RightKnee
			{
				OFFSET -2.44740 -6.72417 0.00000
				CHANNELS 3 Zrotation Yrotation Xrotation
				JOINT RightAnkle
				{
					OFFSET -2.67343 -7.34519 0.00000
					CHANNELS 3 Zrotation Yrotation Xrotation
					JOINT RightToe
					{
						OFFSET -0.16914 -0.46471 1.77626
						CHANNELS 3 Zrotation Yrotation Xrotation
						End Site
						{
							OFFSET -0.00000 -0.00000 0.92777
						}
					}
				}
			}
		}
	}
	JOINT lowerback
	{
		OFFSET 0 0 0
		CHANNELS 3 Zrotation Yrotation Xrotation
		JOINT Chest
		{
			OFFSET 0.01249 2.14252 0.03842
			CHANNELS 3 Zrotation Yrotation Xrotation
			JOINT Chest2
			{
				OFFSET -0.02957 2.14199 -0.03751
				CHANNELS 3 Zrotation Yrotation Xrotation
				JOINT lowerneck
				{
					OFFSET 0 0 0
					CHANNELS 3 Zrotation Yrotation Xrotation
					JOINT Neck
					{
						OFFSET -0.01678 1.65709 -0.05476
						CHANNELS 3 Zrotation Yrotation Xrotation
						JOINT Head
						{
							OFFSET 0.07912 1.58331 -0.11843
							CHANNELS 3 Zrotation Yrotation Xrotation
							End Site
							{
								OFFSET 0.03298 1.73940 -0.04271
							}
						}
					}
				}
				JOINT LeftCollar
				{
					OFFSET 0 0 0
					CHANNELS 3 Zrotation Yrotation Xrotation
					JOINT LeftShoulder
					{
						OFFSET 3.39556 1.16496 0.08673
CHANNELS 3 Zrotation Xrotation Yrotation
						JOINT LeftElbow
						{
OFFSET 0 -5.239100 -0.000000
CHANNELS 3 Zrotation Xrotation Yrotation
							JOINT LeftWrist
							{
OFFSET 0 -3.314670 0.000000
CHANNELS 3 Zrotation Xrotation Yrotation
								JOINT lhand
								{
									OFFSET 0 0 0
CHANNELS 3 Zrotation Xrotation Yrotation
									JOINT LFingers
									{
OFFSET 0 -0.965900 0.000000
CHANNELS 3 Zrotation Xrotation Yrotation
										End Site
										{
OFFSET 0 -0.778730 0.000000
										}
									}
								}
								JOINT LThumb
								{
OFFSET 0 0.000000 0.000000
CHANNELS 3 Zrotation Xrotation Yrotation
									End Site
									{
OFFSET 0 -0.790620 0.790620
									}
								}
							}
						}
					}
				}
				JOINT RightCollar
				{
					OFFSET 0 0 0
					CHANNELS 3 Zrotation Yrotation Xrotation
					JOINT RightShoulder
					{
						OFFSET -3.27193 1.31331 0.33940
CHANNELS 3 Zrotation Xrotation Yrotation
						JOINT RightElbow
						{
OFFSET 0 -5.302520 0.000000
CHANNELS 3 Zrotation Xrotation Yrotation
							JOINT RightWrist
							{
OFFSET 0 -3.678750 0.000000
CHANNELS 3 Zrotation Xrotation Yrotation
								JOINT rhand
								{
									OFFSET 0 0 0
CHANNELS 3 Zrotation Xrotation Yrotation
									JOINT RFingers
									{
OFFSET 0 -0.594810 0.000000
CHANNELS 3 Zrotation Xrotation Yrotation
										End Site
										{
OFFSET 0 -0.479550 0.000000
										}
									}
								}
								JOINT RThumb
								{
OFFSET 0 0.000000 0.000000
CHANNELS 3 Zrotation Xrotation Yrotation
									End Site
									{
OFFSET 0 -0.486870 0.486870
									}
								}
							}
						}
					}
				}
			}
		}
	}
}
MOTION
Frames: 6
Frame Time: 0.008333333333333333
10.836800 17.135700 33.590800 -175.995000 -4.088200 -177.128000 0.000000 0.000000 0.000000 7.756800 -15.013600 12.872000 0.104200 -2.081400 -5.730700 4.359200 -18.850300 -38.362200 8.419200 16.419100 54.058900 0.000000 0.000000 0.000000 10.304400 23.101500 23.180600 -0.086500 1.896800 -5.220600 -9.672300 -15.031200 -63.824100 -3.514500 -11.484700 33.932500 0.263200 -2.142300 -7.382800 0.613700 -3.195600 -4.141800 0.256000 -1.733700 -0.117900 -3.916400 0.171600 -3.432500 12.469800 -0.140000 13.514200 4.555100 0.825200 4.581700 -0.000000 0.000000 0.000000 3.328200 9.570000 -21.418000 4.582800 -7.879100 0.315800 22.876300 -4.401400 10.886500 0.000000 0.000000 0.000000 -7.125000 0.000000 0.000000 -2.962900 18.198300 -1.891900 -0.000000 0.000000 0.000000 -137.945000 -37.669300 -79.838700 -11.337900 -18.804300 -1.883400 -25.532300 33.106500 37.518300 0.000000 0.000000 0.000000 7.125000 0.000000 -0.000000 13.195400 69.968400 -7.924200
10.833366 17.141391 33.577955 -175.099182 -4.161942 -177.116245 0.000000 0.000000 0.000000 9.334910 -13.904918 12.205877 0.102608 -2.065830 -5.687521 4.009987 -19.269458 -36.874160 8.576118 16.527024 54.612282 0.000000 0.000000 0.000000 11.513801 23.494573 23.077578 -0.075276 1.769713 -4.869764 -9.822699 -14.903390 -64.210853 -3.506048 -11.472187 33.889582 1.309275 -2.129525 -7.614456 0.955842 -3.282898 -4.323703 0.012677 -1.806338 -0.214660 -2.435671 0.079206 -1.309086 10.237116 -0.075509 11.313934 3.716485 0.618515 3.743282 0.000000 0.000000 0.000000 3.363200 9.914671 -21.315511 4.882218 -8.385633 0.358158 19.985772 -7.689983 11.755698 0.000000 0.000000 0.000000 -7.125000 0.000000 0.000000 -5.018138 17.521520 -3.287435 0.000000 0.000000 0.000000 -139.992824 -37.685421 -82.506525 -11.297715 -18.743127 -1.870469 -25.379745 32.890156 37.316165 0.000000 0.000000 0.000000 7.125000 0.000000 0.000000 13.162036 69.725037 -7.832363
10.826960 17.143880 33.563910 -174.580389 -4.282097 -177.052503 0.000000 0.000000 0.000000 10.319021 -13.159814 11.671832 0.098935 -2.028658 -5.584986 3.797401 -19.301999 -35.921150 8.659356 16.583464 54.904540 0.000000 0.000000 0.000000 12.103953 23.655702 22.877328 -0.068157 1.684685 -4.635190 -9.758462 -15.156186 -64.110298 -3.616158 -11.631343 34.439902 2.008926 -2.042508 -7.940367 1.144055 -3.254650 -4.501612 -0.191433 -1.818379 -0.245681 -0.468414 -0.172689 0.568187 7.415789 -0.222988 9.446127 2.521479 0.356465 2.956817 0.000000 0.000000 0.000000 3.422009 9.796784 -21.533789 4.827790 -8.293679 0.350188 17.370286 -10.037307 11.890175 0.000000 0.000000 0.000000 -7.125000 0.000000 0.000000 -6.847222 17.592549 -4.489821 0.000000 0.000000 0.000000 -141.666222 -37.449430 -84.410063 -11.281373 -18.718259 -1.865192 -25.964080 33.298592 37.537345 0.000000 0.000000 0.000000 7.125000 0.000000 0.000000 12.635769 70.126352 -7.628793
10.807399 17.173073 33.530142 -173.477220 -3.354278 -177.513868 0.000000 0.000000 0.000000 10.967901 -13.434175 13.358095 0.123170 -2.257499 -6.218028 4.168327 -19.702373 -37.622645 8.629781 16.563354 54.800544 0.000000 0.000000 0.000000 12.975596 23.307096 22.286252 -0.051622 1.461943 -4.020931 -9.033718 -15.548968 -62.155014 -3.437702 -11.369613 33.539699 3.944969 -0.902129 -8.117980 0.729944 -1.860036 -4.293676 -1.606695 -1.143217 0.029495 3.013435 -0.972129 2.164068 4.400989 -1.452407 7.148463 0.885919 -0.529086 1.879244 0.000000 0.000000 0.000000 5.026756 9.271785 -23.741456 4.652288 -7.996935 0.325369 15.274408 -10.752296 12.142318 0.000000 0.000000 0.000000 -7.125000 0.000000 0.000000 -8.307088 17.484500 -5.484399 0.000000 0.000000 0.000000 -140.844388 -34.149161 -78.976671 -11.634654 -19.253270 -1.981100 -26.168032 28.600116 38.399602 0.000000 0.000000 0.000000 7.125000 0.000000 0.000000 13.447618 71.017782 -8.400427
10.803839 17.178380 33.515399 -173.036611 -3.339841 -177.373518 0.000000 0.000000 0.000000 11.508398 -13.571200 13.416589 0.129166 -2.316630 -6.381455 4.323400 -19.688695 -38.314977 8.582278 16.531218 54.633877 0.000000 0.000000 0.000000 12.942613 22.667939 21.243533 -0.037838 1.254904 -3.450470 -8.519799 -15.727014 -60.719389 -3.337419 -11.222220 33.032885 4.874035 -0.278392 -8.516759 0.338391 -1.125488 -4.383206 -2.482292 -0.801556 0.151603 5.115648 -1.359534 2.951892 2.993358 -2.288353 5.915266 0.068718 -1.180889 1.316746 0.000000 0.000000 0.000000 6.471681 8.954635 -25.422936 4.744105 -8.152218 0.338277 11.885521 -11.853917 11.440424 0.000000 0.000000 0.000000 -7.125000 0.000000 0.000000 -10.679369 18.407991 -6.880609 0.000000 0.000000 0.000000 -140.422713 -31.913859 -75.505149 -11.934372 -19.706060 -2.080057 -26.521754 25.908868 39.164347 0.000000 0.000000 0.000000 7.125000 0.000000 0.000000 13.953143 71.866263 -8.969048
10.722643 17.157534 33.379587 -176.878471 -2.673504 -178.766534 0.000000 0.000000 0.000000 3.379882 -17.298009 19.632033 0.217156 -2.999520 -8.277516 5.702403 -21.570246 -44.230349 8.568815 16.522088 54.586602 0.000000 0.000000 0.000000 6.482275 18.337855 21.360621 -0.062759 1.616202 -4.446080 -6.266509 -17.322264 -54.412386 -2.690459 -10.175144 29.546765 2.484351 0.094497 -8.932580 -1.246928 -0.354651 -3.597026 -2.723969 -0.329884 1.260283 5.412565 -1.711780 2.735980 3.037224 -2.823189 6.312715 0.026490 -1.441112 1.472554 0.000000 0.000000 0.000000 7.467629 8.399497 -26.424764 4.693776 -8.067037 0.331176 7.814601 -13.053261 10.665204 0.000000 0.000000 0.000000 -7.125000 0.000000 0.000000 -13.551399 19.364761 -8.532024 0.000000 0.000000 0.000000 -140.816880 -31.123336 -76.120487 -11.974873 -19.766933 -2.093771 -27.376116 26.680050 39.100354 0.000000 0.000000 0.000000 7.125000 0.000000 0.000000 12.652325 72.096313 -8.188151
